<svg id="Layer_1" data-name="Layer 1" xmlns="http://www.w3.org/2000/svg" viewBox="0 0 850.39 850.39"><defs><style>.cls-1{fill:#25a6b2;}.cls-2{fill:#060038;}</style></defs><path class="cls-1" d="M55.23468,532.90953a41.24116,41.24116,0,0,1,9.18677-13.51141,42.45457,42.45457,0,0,1,14.34074-9.12626,50.65652,50.65652,0,0,1,18.72235-3.31734A57.88811,57.88811,0,0,1,115.14619,509.56a40.19353,40.19353,0,0,1,14.21973,7.82352,36.40418,36.40418,0,0,1,9.5427,13.21242,46.35385,46.35385,0,0,1,3.49531,18.669,40.84121,40.84121,0,0,1-3.37785,16.59027,41.634,41.634,0,0,1-9.36473,13.4509,42.29649,42.29649,0,0,1-14.28024,8.94829,50.26483,50.26483,0,0,1-18.249,3.19988,64.88084,64.88084,0,0,1-17.60114-2.31,37.6627,37.6627,0,0,1-14.34075-7.46758,36.01,36.01,0,0,1-9.6566-13.15547q-3.55582-7.99792-3.55582-19.1388A41.79531,41.79531,0,0,1,55.23468,532.90953Zm65.83432.057a31.66894,31.66894,0,0,0-5.27144-10.36848,23.13143,23.13143,0,0,0-8.17946-6.57774,23.84391,23.84391,0,0,0-10.48594-2.31,20.56727,20.56727,0,0,0-10.84543,2.90089,25.718,25.718,0,0,0-8.119,7.884,37.80119,37.80119,0,0,0-5.03653,11.67121,57.28566,57.28566,0,0,0-1.71918,14.2838,54.843,54.843,0,0,0,2.01461,15.99942,28.77529,28.77529,0,0,0,5.453,10.48594,20.2573,20.2573,0,0,0,7.941,5.7484,25.57606,25.57606,0,0,0,9.4822,1.77969,23.95216,23.95216,0,0,0,10.1905-2.25309,22.98918,22.98918,0,0,0,8.47489-6.87317,36.25107,36.25107,0,0,0,5.80535-11.73172,57.37642,57.37642,0,0,0,2.19258-16.83231A46.5296,46.5296,0,0,0,121.069,532.96648Z"/><path class="cls-1" d="M212.56646,545.64855q-2.72827,7.5281-5.51348,15.34806-2.78166,7.82173-5.39247,15.40856-2.60545,7.58148-4.50261,13.50785-2.72828-.23492-6.04383-.23492h-3.08243a20.38175,20.38175,0,0,0-3.07886.23492q-1.30808-4.85856-3.43837-12.56106-2.13562-7.70427-4.62363-16.35535-2.488-8.6493-5.09348-17.48013-2.61079-8.83082-4.85855-16.17738-2.25309-7.34657-3.7943-12.50411-1.543-5.15754-2.01461-6.33926,2.60547.23492,5.097.41289,2.488.17619,4.85856.178,2.37054,0,4.798-.178,2.42928-.17619,4.80161-.41289,1.77791,7.58148,3.79074,15.583,2.01817,7.99794,4.08973,15.7645,2.07156,7.763,4.02922,15.04907,1.95409,7.28782,3.61633,13.4509h.23492q2.60547-7.464,5.63094-16.17739,3.02191-8.708,5.86586-17.06367,2.84572-8.35564,5.21449-15.40856,2.37056-7.04758,3.67329-11.19782c1.02866.15661,2.01461.29543,2.965.41289a24.75736,24.75736,0,0,0,5.92637,0q1.4202-.17619,2.96141-.41289a69.19739,69.19739,0,0,0,1.77613,6.99063q1.30273,4.38871,3.02191,9.71711,1.71918,5.33373,3.67684,11.26188,1.95411,5.92637,3.9082,11.73172,1.95945,5.80891,3.61634,11.0234,1.66044,5.21628,2.72648,9.1227h.23492q2.37055-7.464,5.04008-16.47282,2.66421-9.007,5.154-17.41961,2.488-8.41437,4.50262-15.40856,2.01282-6.98884,2.84394-10.54645a26.14375,26.14375,0,0,0,4.97958.59086,20.82707,20.82707,0,0,0,2.666-.178q1.36148-.17619,2.78344-.41289-.82755,2.25309-2.60547,7.34656-1.7779,5.09881-4.14668,12.03071-2.37588,6.93012-5.097,15.10958-2.72827,8.17946-5.453,16.47281-2.72827,8.29692-5.275,16.2379-2.54673,7.9392-4.4421,14.21973-2.72827-.23492-6.04383-.23492h-3.08243a20.39329,20.39329,0,0,0-3.08242.23492q-3.79074-14.4582-8.59235-28.73844-4.79982-14.282-10.13356-29.09439H217.425Q215.28939,538.124,212.56646,545.64855Z"/><path class="cls-1" d="M302.75406,518.3303q-.24025-5.56864-.35594-9.83457a24.36943,24.36943,0,0,0,10.66747,0q12.91521,14.34075,25.53856,28.20454,12.62157,13.86556,25.89806,28.2081V543.1q0-5.80358-.06051-11.4363-.05873-5.62737-.11746-10.36847-.06406-4.74109-.23848-8.17946a39.22683,39.22683,0,0,0-.41289-4.62008,24.35337,24.35337,0,0,0,10.66391,0q-.59263,10.78493-.9468,19.49473-.35771,8.708-.59441,16.41231-.23493,7.70962-.29543,15.23059-.05872,7.5281-.05695,16.05993V589.913c-1.58393-.15661-3.19988-.23492-4.86212-.23492a40.297,40.297,0,0,0-4.62007.23492q-24.41558-28.44123-51.79256-57.242-.11746,3.43836-.178,6.87316-.05873,3.43837-.057,6.99419v13.74633q0,7.11165.057,12.08766.05873,4.98135.178,8.41794.11747,3.43836.23848,5.62738.11745,2.19435.23492,3.49531a17.388,17.388,0,0,0-2.844-.23492H306.075q-2.72826,0-5.453.23492a65.3969,65.3969,0,0,0,.59086-6.75571q.35772-5.80356.77239-14.15921.41111-8.35566.71187-18.135.29366-9.77585.29543-18.78286Q302.99254,523.90073,302.75406,518.3303Z"/><path class="cls-2" d="M480.43838,523.84378q-.20823-7.64554-.62289-15.34805,5.33373.11747,10.54644.35594,5.21628.23492,10.55.23492,8.76675,0,15.583-.178,6.818-.17619,9.18676-.41289a21.144,21.144,0,0,0-.47339,4.976,28.78,28.78,0,0,0,.11746,2.965q.11745,1.06248.35593,2.367-3.43836-.23492-7.52453-.4734-4.08972-.23492-7.941-.4734-3.8548-.23492-6.93367-.35593-3.086-.11747-4.38516-.11746-.47519,6.519-.53391,12.917-.05872,6.40155-.06051,12.92056,7.70429-.11746,13.92786-.35594,6.22-.24026,12.97751-.59442c-.23848,1.34545-.39865,2.37055-.477,3.08243a20.60517,20.60517,0,0,0-.11746,2.24952,11.34069,11.34069,0,0,0,.178,1.95766q.17619,1.0091.41645,2.90446-13.5132-1.06782-26.90537-1.06782,0,3.79608-.05695,7.58505-.06406,3.79608-.06051,7.585,0,7.70428.35594,14.81414,6.75393,0,13.51141-.35594,6.75393-.35237,13.62887-1.18527c-.16017.87205-.27763,1.65867-.35593,2.37055a37.43512,37.43512,0,0,0,0,5.92637,8.5577,8.5577,0,0,0,.35593,1.77613q-3.19811-.11747-7.88047-.178-4.68769-.05872-12.86-.057H486.15474c-1.77613,0-3.12157.0178-4.02922.057s-1.67646.09966-2.31.178q.41645-7.34656.62289-14.99211.20288-7.64022.20644-17.48013V541.32391Q480.64482,531.48934,480.43838,523.84378Z"/><path class="cls-2" d="M622.15159,589.913c-1.89359-.15661-3.69464-.23492-5.39247-.23492H606.68607q-2.54673,0-5.03652.23492-1.89537-5.80358-3.91176-11.84918-2.01284-6.04383-4.26414-12.09122-3.79608-.11212-7.585-.17441-3.79608-.05873-7.585-.06051-3.086,0-6.16485.06051-3.08064.05872-6.16129.17441-2.37056,6.04917-4.38516,12.09122-2.01816,6.04383-3.67328,11.84918a17.1266,17.1266,0,0,0-2.787-.23492h-5.62739a22.03313,22.03313,0,0,0-3.08242.23492q1.42018-3.08064,3.79074-8.53184t5.21449-12.32613q2.84573-6.8714,6.10434-14.75364,3.25684-7.88047,6.52079-15.94247,3.25683-8.05666,6.39977-15.8784,3.134-7.82174,5.74484-14.57923c.79018.16018,1.54121.29543,2.25309.41645a14.32838,14.32838,0,0,0,4.50261,0c.71188-.121,1.46291-.25627,2.25309-.41645q3.79074,10.07484,8.11895,21.56986,4.32465,11.495,8.70981,22.57715,4.38338,11.08392,8.53183,21.03595Q618.715,583.04163,622.15159,589.913ZM580.19716,530.7739q-3.08064,7.11165-5.80535,14.04532-2.72828,6.93545-5.332,14.16278h21.68731q-2.6108-7.22911-5.15754-14.16278Q583.04289,537.88376,580.19716,530.7739Z"/><path class="cls-2" d="M648.34507,523.84378q-.24026-7.64554-.71187-15.34805,2.01282.23492,4.38516.41289,2.37054.17619,5.332.178,3.91353,0,8.77031-.29543,4.85856-.29365,12.68208-.29543a86.55821,86.55821,0,0,1,18.54794,1.83664,38.15087,38.15087,0,0,1,14.39769,6.2218,28.75,28.75,0,0,1,9.36474,11.79223q3.31556,7.40529,3.31734,18.6654A46.35447,46.35447,0,0,1,721.17,564.78735a40.90456,40.90456,0,0,1-8.88778,13.57192,38.49692,38.49692,0,0,1-13.038,8.59234,42.19132,42.19132,0,0,1-15.82145,2.96141q-8.88956,0-15.17009-.11746-6.27875-.11747-10.90238-.11746h-5.332a37.93361,37.93361,0,0,0-4.38516.23492q.46983-7.34656.71187-14.99211.23493-7.64022.23492-17.48013V541.32391Q648.58,531.48934,648.34507,523.84378Zm17.77555,42.24986v7.11164q0,3.43837.06051,6.27875.05874,2.84573.05695,3.67328,1.77792.1228,4.2677.23848,2.488.11747,6.16129.11746,13.39574,0,21.21391-9.12269,7.82709-9.12981,7.82352-27.61724a41.1127,41.1127,0,0,0-1.9541-13.15192,29.0197,29.0197,0,0,0-5.51348-9.89864,23.98675,23.98675,0,0,0-8.53184-6.27874,27.33291,27.33291,0,0,0-11.14086-2.19258q-4.26591,0-6.93367.17441-2.66419.18153-5.39247.41644c0,.55527-.01779,1.77614-.05695,3.67329q-.06407,2.84573-.06051,6.39976v40.1783Z"/><path class="cls-2" d="M774.71023,514.30108a12.53187,12.53187,0,0,0-8.89133,3.19989,10.34543,10.34543,0,0,0-.76883,14.63617,28.1891,28.1891,0,0,0,6.6952,5.03653q4.031,2.25309,8.65285,4.3282a45.16166,45.16166,0,0,1,8.65286,5.09348,26.57726,26.57726,0,0,1,6.69519,7.35012q2.66419,4.32465,2.666,11.08036a25.7305,25.7305,0,0,1-2.25309,10.84543,23.89031,23.89031,0,0,1-6.39977,8.41438,28.69211,28.69211,0,0,1-9.89508,5.332,42.14287,42.14287,0,0,1-12.86,1.83664,43.92687,43.92687,0,0,1-11.43629-1.36324,21.95427,21.95427,0,0,1-7.642-3.37785q1.17993-4.14312,2.01461-7.585.82755-3.433,1.42019-7.464h2.25309a15.724,15.724,0,0,0,5.097,9.00524,14.62883,14.62883,0,0,0,4.85856,2.787,19.05884,19.05884,0,0,0,6.39976,1.00731q7.11165,0,10.4895-3.55582a11.96228,11.96228,0,0,0,3.37785-8.5354,10.457,10.457,0,0,0-2.609-7.34656,25.98047,25.98047,0,0,0-6.51723-5.03653q-3.91355-2.19435-8.5354-4.2677a43.72188,43.72188,0,0,1-8.53183-5.03652,25.586,25.586,0,0,1-6.51723-7.28961q-2.61081-4.32465-2.609-11.08036a25.6906,25.6906,0,0,1,2.19258-10.90238,23.39238,23.39238,0,0,1,5.86586-7.941,25.42273,25.42273,0,0,1,8.47489-4.85856,30.77512,30.77512,0,0,1,10.13356-1.65867,36.6523,36.6523,0,0,1,11.19781,1.54121,25.85864,25.85864,0,0,1,8.24,4.26414q-1.06782,2.72826-1.8402,5.275-.76882,2.55209-1.9541,6.46028H789.051Q785.2549,514.30286,774.71023,514.30108Z"/><polygon class="cls-2" points="436.267 530.25 455.886 514.991 460.782 524.167 437.184 531.969 436.267 530.25"/><polygon class="cls-2" points="431.394 566.021 447.302 559.365 448.353 561.335 433.968 570.844 431.394 566.021"/><path class="cls-2" d="M452.91325,588.13866a9.30242,9.30242,0,0,0,.35012,1.776c-2.12546-.07509-4.75123-.15018-7.877-.17521-3.12577-.05006-7.40172-.05006-12.85289-.05006H413.75384c-1.77564,0-3.12577,0-4.05129.05006-.89988.025-1.67522.10012-2.30037.17521.32479-4.90172.55006-9.903.72528-15.00369q.22481-7.61448.22466-17.47988V541.32723q0-9.82693-.22466-17.47927c-.17522-5.10135-.40049-10.22774-.72528-15.35351,1.35043.15019,2.80068.29976,4.37608.42491,1.60012.10012,3.37577.17522,5.351.17522,1.97559,0,3.75093-.0751,5.32663-.17522,1.57509-.12515,3.05068-.27472,4.37608-.42491-.30037,5.12577-.55007,10.25216-.70025,15.35351q-.26281,7.652-.25031,17.47927v5.65141l5.50154-2.92552,2.57571,4.826-8.07725,4.301V557.431q0,6.75184.0751,13.05375c.025,4.17583.10012,7.8016.17521,10.90234,4.50123,0,9.00215-.12516,13.50308-.34982,4.50122-.25031,9.05251-.65019,13.62853-1.20025-.14988.87485-.275,1.65019-.35012,2.37546a29.01091,29.01091,0,0,0-.12516,2.95056A29.56267,29.56267,0,0,0,452.91325,588.13866Z"/><path class="cls-1" d="M367.14508,258.93577v29.00234c1.40182.1529,2.90568.30581,4.45994.40769,2.47231.17842,5.25013.28031,8.33376.28031s5.83624-.10189,8.30825-.28031,4.74054-.40769,6.83021-.66264c-.48439,8.028-.86642,16.00487-1.096,23.93078q-.38218,11.92713-.382,27.26935v8.84335l8.58824-4.58734,4.02688,7.51821-12.61512,6.72817v6.62613q0,10.5127.10173,20.33726.07653,9.78636.2803,16.99884c7.00847,0,14.04245-.17842,21.05092-.56076,7.034-.35683,14.119-.994,21.255-1.86038-.2296,1.37615-.43337,2.5994-.53541,3.69541a43.03873,43.03873,0,0,0-.20377,4.63819,42.5114,42.5114,0,0,0,.20377,4.613,13.42174,13.42174,0,0,0,.53541,2.77782h36.97926V258.93577Zm39.04373,125.97406-4.00137-7.51821,24.79719-10.37256,1.63141,3.08379Zm5.02054-60.60424-1.42733-2.67593,30.58242-23.80323,7.6456,14.32276Z"/></svg>