<svg xmlns="http://www.w3.org/2000/svg" xmlns:xlink="http://www.w3.org/1999/xlink" width="214.288" height="39.819" viewBox="0 0 214.288 39.819">
  <defs>
    <clipPath id="clip-path">
      <path id="Tracé_84601" data-name="Tracé 84601" d="M37.5,154.273H83.091v39.82H37.5Zm0,0" fill="#fff"/>
    </clipPath>
    <clipPath id="clip-path-2">
      <path id="Tracé_84600" data-name="Tracé 84600" d="M78.607,169.687a4.457,4.457,0,0,0-1.443.24,4.458,4.458,0,0,0-2.287,1.758,4.456,4.456,0,0,0-.6,1.335,4.408,4.408,0,0,0-.144,1.457,4.476,4.476,0,0,0,1.109,2.666,4.412,4.412,0,0,0,1.13.926,16.37,16.37,0,0,1-.812,2.48,16.592,16.592,0,0,1-4.578,6.261,17.02,17.02,0,0,1-2.113,1.524,16.518,16.518,0,0,1-7.382,2.354,16.74,16.74,0,0,1-2.606-.015,16.969,16.969,0,0,1-2.57-.427,16.67,16.67,0,0,1-4.779-2.028A16.5,16.5,0,0,1,46.1,182.68a16.523,16.523,0,0,1-1.16-2.335,5.428,5.428,0,0,1-2.705.706,5.916,5.916,0,0,1-.616-.036c.114.307.231.613.361.914a19.819,19.819,0,0,0,1.44,2.783,19.891,19.891,0,0,0,15.522,9.336,19.757,19.757,0,0,0,3.129-.033,20.258,20.258,0,0,0,3.087-.526,19.917,19.917,0,0,0,12.233-9.144,20.263,20.263,0,0,0,1.38-2.813,19.664,19.664,0,0,0,.923-2.993,4.579,4.579,0,0,0,.766-.268,4.514,4.514,0,0,0,.7-.4,4.517,4.517,0,0,0,1.536-1.854,4.37,4.37,0,0,0,.261-.769,4.261,4.261,0,0,0,.12-.8,4.308,4.308,0,0,0-.027-.811,4.444,4.444,0,0,0-.171-.794,4.491,4.491,0,0,0-.31-.748,4.378,4.378,0,0,0-.442-.682,4.161,4.161,0,0,0-.556-.589,4.282,4.282,0,0,0-.652-.481,4.361,4.361,0,0,0-.73-.357,4.434,4.434,0,0,0-.778-.217A4.607,4.607,0,0,0,78.607,169.687Zm0,6.549a2.057,2.057,0,0,1-1.9-1.271,2.055,2.055,0,0,1,0-1.572,2.047,2.047,0,0,1,.445-.667,2.052,2.052,0,0,1,2.236-.445,2.044,2.044,0,0,1,1.112,1.112,2.078,2.078,0,0,1,.156.787,2.045,2.045,0,0,1-.6,1.452,1.988,1.988,0,0,1-.664.445A2.018,2.018,0,0,1,78.607,176.236ZM46.47,174.18A4.5,4.5,0,0,0,45.15,171a4.574,4.574,0,0,0-.932-.713,16.532,16.532,0,0,1,2-4.795,16.48,16.48,0,0,1,1.536-2.1,16.735,16.735,0,0,1,1.849-1.837,16.474,16.474,0,0,1,2.113-1.52,16.025,16.025,0,0,1,2.323-1.173,16.455,16.455,0,0,1,2.477-.793,16.2,16.2,0,0,1,2.573-.394,15.975,15.975,0,0,1,2.6.015,16.48,16.48,0,0,1,2.567.421,16.653,16.653,0,0,1,2.471.823,16.282,16.282,0,0,1,2.311,1.2,16.661,16.661,0,0,1,2.092,1.544,16.608,16.608,0,0,1,4.5,6.313,5.4,5.4,0,0,1,2.771-.743c.177,0,.358.008.532.024-.105-.282-.213-.565-.331-.842a19.9,19.9,0,0,0-8.079-9.327,19.9,19.9,0,0,0-8.885-2.8,19.864,19.864,0,0,0-9.179,1.564,20.16,20.16,0,0,0-2.771,1.457A19.968,19.968,0,0,0,45,161.451a20.035,20.035,0,0,0-1.8,2.562,19.606,19.606,0,0,0-1.38,2.813,20.157,20.157,0,0,0-.923,3,4.495,4.495,0,0,0-1.506.695,4.438,4.438,0,0,0-1.154,1.2,4.491,4.491,0,0,0-.637,1.537,4.545,4.545,0,0,0-.039,1.662,4.368,4.368,0,0,0,.213.806,4.323,4.323,0,0,0,.355.754,4.728,4.728,0,0,0,.49.676,4.812,4.812,0,0,0,.607.574,4.262,4.262,0,0,0,.7.448,4.166,4.166,0,0,0,.772.312,4.39,4.39,0,0,0,.818.165,4.3,4.3,0,0,0,.833.009,4.472,4.472,0,0,0,1.6-.439,4.342,4.342,0,0,0,.712-.436,4.223,4.223,0,0,0,.619-.559,4.48,4.48,0,0,0,.5-.662,4.446,4.446,0,0,0,.6-1.55A4.516,4.516,0,0,0,46.47,174.18Zm-6.537,0a2.078,2.078,0,0,1,.156-.787,2.044,2.044,0,0,1,1.112-1.112,2.055,2.055,0,0,1,2.236.445,2.045,2.045,0,0,1,.445.667,2.055,2.055,0,0,1,0,1.572,2.051,2.051,0,0,1-1.9,1.271,2.08,2.08,0,0,1-1.452-.6,2.059,2.059,0,0,1-.6-1.452Zm20.412-8.389a8.379,8.379,0,0,1,7.289,4.265l3.084-1.169a11.662,11.662,0,1,0,.126,10.33l-3.027-1.259a8.379,8.379,0,0,1-7.472,4.608,8.388,8.388,0,0,1,0-16.775Zm0,0" transform="translate(-37.502 -154.26)" fill="#fff"/>
    </clipPath>
  </defs>
  <g id="white-logo" transform="translate(-44.33 -166.273)">
    <g id="Groupe_261" data-name="Groupe 261" transform="translate(6.83 12)" clip-path="url(#clip-path)">
      <g id="Groupe_260" data-name="Groupe 260" transform="translate(37.502 154.263)" clip-path="url(#clip-path-2)">
        <path id="Tracé_84599" data-name="Tracé 84599" d="M37.5,154.273v39.82H83.091v-39.82Zm0,0" transform="translate(-37.502 -154.263)" fill="#fff"/>
      </g>
    </g>
    <g id="Groupe_298" data-name="Groupe 298" transform="translate(-17 8.342)">
      <g id="Groupe_264" data-name="Groupe 264">
        <g id="Groupe_263" data-name="Groupe 263" transform="translate(112.52 188.263)">
          <g id="Groupe_262" data-name="Groupe 262">
            <path id="Tracé_84602" data-name="Tracé 84602" d="M10.844.281a9.074,9.074,0,0,0,8.75-5.762L16.266-6.84a5.258,5.258,0,0,1-5.422,3.711c-4.289,0-6.113-3.043-6.113-7.023,0-3.707,1.824-6.754,6.059-6.754,2.605,0,4.672,1.02,5.422,3.656l3.356-1.332a9.1,9.1,0,0,0-8.75-5.75c-6.582,0-9.656,4.844-9.656,10.324S4.262.281,10.844.281Zm0,0" fill="#fff"/>
          </g>
        </g>
      </g>
      <g id="Groupe_267" data-name="Groupe 267">
        <g id="Groupe_266" data-name="Groupe 266" transform="translate(133.285 188.263)">
          <g id="Groupe_265" data-name="Groupe 265">
            <path id="Tracé_84603" data-name="Tracé 84603" d="M7.973.281a7.394,7.394,0,0,0,5.8-2.547L11.4-4.348A4.3,4.3,0,0,1,8-2.844a3.267,3.267,0,0,1-3.539-3.1h9.711A5.655,5.655,0,0,0,14.3-7.3c0-3.156-1.6-7.137-6.555-7.137C2.957-14.441.809-10.7.809-7.023.809-3.215,3.1.281,7.973.281ZM4.461-8.437c.324-1.769,1.215-3.1,3.254-3.1a2.925,2.925,0,0,1,3.074,2.211,3.029,3.029,0,0,1,.113.891Zm0,0" fill="#fff"/>
          </g>
        </g>
      </g>
      <g id="Groupe_270" data-name="Groupe 270">
        <g id="Groupe_269" data-name="Groupe 269" transform="translate(148.911 188.263)">
          <g id="Groupe_268" data-name="Groupe 268">
            <path id="Tracé_84604" data-name="Tracé 84604" d="M2.055,0h3.34V-5.973c0-3.6,1.684-5.1,3.3-5.1a2.739,2.739,0,0,1,1.543.481l1.574-2.832a3.631,3.631,0,0,0-2.594-1.019,4.031,4.031,0,0,0-3.793,2.676v-2.379H2.055Zm0,0" fill="#fff"/>
          </g>
        </g>
      </g>
      <g id="Groupe_273" data-name="Groupe 273">
        <g id="Groupe_272" data-name="Groupe 272" transform="translate(160.941 188.263)">
          <g id="Groupe_271" data-name="Groupe 271">
            <path id="Tracé_84605" data-name="Tracé 84605" d="M7.051.281A8.183,8.183,0,0,0,9.629-.141V-3.27a4.9,4.9,0,0,1-1.969.508c-.906,0-1.574-.395-1.574-1.754v-6.738H9.629v-2.891H6.086v-5.973L2.691-17.656v3.512H.355v2.891H2.633v7.348C2.633-1.332,4.289.281,7.051.281Zm0,0" fill="#fff"/>
          </g>
        </g>
      </g>
      <g id="Groupe_276" data-name="Groupe 276">
        <g id="Groupe_275" data-name="Groupe 275" transform="translate(172.108 188.263)">
          <g id="Groupe_274" data-name="Groupe 274">
            <path id="Tracé_84606" data-name="Tracé 84606" d="M1.969-16.82H5.594V-20H1.969ZM2.055,0H5.508V-14.144H2.055Zm0,0" fill="#fff"/>
          </g>
        </g>
      </g>
      <g id="Groupe_279" data-name="Groupe 279">
        <g id="Groupe_278" data-name="Groupe 278" transform="translate(180.175 188.263)">
          <g id="Groupe_277" data-name="Groupe 277">
            <path id="Tracé_84607" data-name="Tracé 84607" d="M2.875,0H6.441V-11.254h3.3v-2.891h-3.3v-1.543c0-1.105.609-1.543,1.3-1.543a2.24,2.24,0,0,1,1.1.355L9.98-19.723A6.308,6.308,0,0,0,7.418-20.3,4.218,4.218,0,0,0,2.9-16.039v1.895H.281v2.891H2.875Zm0,0" fill="#fff"/>
          </g>
        </g>
      </g>
      <g id="Groupe_282" data-name="Groupe 282">
        <g id="Groupe_281" data-name="Groupe 281" transform="translate(190.407 188.263)">
          <g id="Groupe_280" data-name="Groupe 280">
            <path id="Tracé_84608" data-name="Tracé 84608" d="M1.969-16.82H5.594V-20H1.969ZM2.055,0H5.508V-14.144H2.055Zm0,0" fill="#fff"/>
          </g>
        </g>
      </g>
      <g id="Groupe_285" data-name="Groupe 285">
        <g id="Groupe_284" data-name="Groupe 284" transform="translate(198.474 188.263)">
          <g id="Groupe_283" data-name="Groupe 283">
            <path id="Tracé_84609" data-name="Tracé 84609" d="M7.973.281a7.394,7.394,0,0,0,5.8-2.547L11.4-4.348A4.3,4.3,0,0,1,8-2.844a3.267,3.267,0,0,1-3.539-3.1h9.711A5.655,5.655,0,0,0,14.3-7.3c0-3.156-1.6-7.137-6.555-7.137C2.957-14.441.809-10.7.809-7.023.809-3.215,3.1.281,7.973.281ZM4.461-8.437c.324-1.769,1.215-3.1,3.254-3.1a2.925,2.925,0,0,1,3.074,2.211,3.029,3.029,0,0,1,.113.891Zm0,0" fill="#fff"/>
          </g>
        </g>
      </g>
      <g id="Groupe_288" data-name="Groupe 288">
        <g id="Groupe_287" data-name="Groupe 287" transform="translate(214.1 188.263)">
          <g id="Groupe_286" data-name="Groupe 286">
            <path id="Tracé_84610" data-name="Tracé 84610" d="M7.023.281A4.913,4.913,0,0,0,11.129-1.6L11.285,0H14.5V-20H10.988v7.277a5.1,5.1,0,0,0-4.023-1.715c-3.922,0-6.074,3.453-6.074,7.363C.891-3.129,3.043.281,7.023.281Zm.836-3.125C5.48-2.844,4.4-4.7,4.4-7.078c0-2.352,1.078-4.234,3.457-4.234s3.426,1.855,3.426,4.234C11.285-4.672,10.234-2.844,7.859-2.844Zm0,0" fill="#fff"/>
          </g>
        </g>
      </g>
      <g id="Groupe_291" data-name="Groupe 291">
        <g id="Groupe_290" data-name="Groupe 290" transform="translate(231.17 188.263)">
          <g id="Groupe_289" data-name="Groupe 289">
            <path id="Tracé_84611" data-name="Tracé 84611" d="M7.191-14.441a6.919,6.919,0,0,0-5.945,3.1L3.879-9.43a3.839,3.839,0,0,1,3.34-2c2.254,0,2.875.891,2.945,2.988H6.313C3.156-8.437.7-7.418.7-4.348.7-1.387,2.93.281,5.832.281A5.289,5.289,0,0,0,10.25-1.9L10.461,0h2.848V-8.578C13.309-12.035,11.043-14.441,7.191-14.441ZM6.527-2.633c-1.543,0-2.293-.664-2.293-1.6,0-.891.723-1.711,2.293-1.711H10.18v.113A3.592,3.592,0,0,1,6.527-2.633Zm0,0" fill="#fff"/>
          </g>
        </g>
      </g>
      <g id="Groupe_294" data-name="Groupe 294">
        <g id="Groupe_293" data-name="Groupe 293" transform="translate(246.598 188.263)">
          <g id="Groupe_292" data-name="Groupe 292">
            <path id="Tracé_84612" data-name="Tracé 84612" d="M7.023.281A4.913,4.913,0,0,0,11.129-1.6L11.285,0H14.5V-20H10.988v7.277a5.1,5.1,0,0,0-4.023-1.715c-3.922,0-6.074,3.453-6.074,7.363C.891-3.129,3.043.281,7.023.281Zm.836-3.125C5.48-2.844,4.4-4.7,4.4-7.078c0-2.352,1.078-4.234,3.457-4.234s3.426,1.855,3.426,4.234C11.285-4.672,10.234-2.844,7.859-2.844Zm0,0" fill="#fff"/>
          </g>
        </g>
      </g>
      <g id="Groupe_297" data-name="Groupe 297">
        <g id="Groupe_296" data-name="Groupe 296" transform="translate(263.668 188.263)">
          <g id="Groupe_295" data-name="Groupe 295">
            <path id="Tracé_84613" data-name="Tracé 84613" d="M6.313.281c2.676,0,5.523-1.441,5.523-4.711,0-5.2-7.191-3.922-7.191-6.063,0-.664.691-1.215,1.824-1.215a3.055,3.055,0,0,1,2.8,1.8l2.676-1.457a5.888,5.888,0,0,0-5.367-3.074c-2.73,0-5.25,1.418-5.25,4.4,0,5,7.105,3.4,7.105,5.777,0,.75-.691,1.684-2.293,1.684A3.1,3.1,0,0,1,3.129-4.9L.383-3.68A6.058,6.058,0,0,0,6.313.281Zm0,0" fill="#fff"/>
          </g>
        </g>
      </g>
    </g>
  </g>
</svg>
